<svg xmlns="http://www.w3.org/2000/svg" width="600" height="400" viewBox="0 0 600 400" fill="none">
  <!-- Background elements -->
  <path d="M0 200C0 89.54 89.54 0 200 0H400C510.46 0 600 89.54 600 200V400H0V200Z" fill="#F9F5FF"/>
  
  <!-- Decorative elements -->
  <circle cx="480" cy="80" r="50" fill="#E9D5FF" opacity="0.6"/>
  <circle cx="120" cy="320" r="40" fill="#E9D5FF" opacity="0.6"/>
  <path d="M540 180C540 196.569 526.569 210 510 210C493.431 210 480 196.569 480 180C480 163.431 493.431 150 510 150C526.569 150 540 163.431 540 180Z" fill="#C084FC" opacity="0.4"/>
  
  <!-- 404 text -->
  <path d="M140 120H160V240H140V120Z" fill="#7C3AED"/>
  <path d="M180 240V220H220C233.255 220 244 209.255 244 196V164C244 150.745 233.255 140 220 140H180V120H220C244.301 120 264 139.699 264 164V196C264 220.301 244.301 240 220 240H180Z" fill="#7C3AED"/>
  <path d="M300 120H320V240H300V120Z" fill="#7C3AED"/>
  <path d="M340 240V220H380C393.255 220 404 209.255 404 196V164C404 150.745 393.255 140 380 140H340V120H380C404.301 120 424 139.699 424 164V196C424 220.301 404.301 240 380 240H340Z" fill="#7C3AED"/>
  
  <!-- Shopping bag icon -->
  <path d="M300 330H240C231.716 330 225 323.284 225 315V285C225 276.716 231.716 270 240 270H360C368.284 270 375 276.716 375 285V315C375 323.284 368.284 330 360 330H300Z" fill="#7C3AED"/>
  <path d="M290 270V250C290 239.507 298.507 231 309 231H325C335.493 231 344 239.507 344 250V270" stroke="#7C3AED" stroke-width="10"/>
  
  <!-- Missing item illustration -->
  <path d="M420 340C420 340 440 320 440 300C440 283.431 426.569 270 410 270C393.431 270 380 283.431 380 300C380 320 400 340 400 340H420Z" fill="#C084FC"/>
  <path d="M410 290V310M400 300H420" stroke="white" stroke-width="3" stroke-linecap="round"/>
</svg>
